<svg viewBox="0 0 300 300" fill="none" xmlns="http://www.w3.org/2000/svg">
<path d="M66.1623 66.1628C68.5064 63.8194 71.6852 62.503 74.9998 62.503C78.3143 62.503 81.4932 63.8194 83.8373 66.1628L150 132.325L216.162 66.1628C217.315 64.9689 218.695 64.0166 220.22 63.3615C221.745 62.7064 223.385 62.3616 225.045 62.3472C226.705 62.3327 228.35 62.649 229.887 63.2775C231.423 63.906 232.819 64.8342 233.992 66.0078C235.166 67.1815 236.094 68.5772 236.723 70.1134C237.351 71.6496 237.667 73.2956 237.653 74.9553C237.638 76.615 237.294 78.2553 236.639 79.7803C235.983 81.3054 235.031 82.6847 233.837 83.8378L167.675 150L233.837 216.163C236.114 218.52 237.374 221.678 237.346 224.955C237.317 228.233 236.003 231.368 233.685 233.686C231.367 236.003 228.232 237.318 224.955 237.346C221.677 237.375 218.52 236.115 216.162 233.838L150 167.675L83.8373 233.838C81.4797 236.115 78.3222 237.375 75.0448 237.346C71.7673 237.318 68.6321 236.003 66.3145 233.686C63.9969 231.368 62.6823 228.233 62.6538 224.955C62.6254 221.678 63.8853 218.52 66.1623 216.163L132.325 150L66.1623 83.8378C63.8189 81.4937 62.5024 78.3148 62.5024 75.0003C62.5024 71.6857 63.8189 68.5069 66.1623 66.1628V66.1628Z" />
</svg>
