<svg viewBox="0 0 300 300" fill="none" xmlns="http://www.w3.org/2000/svg">
    <path fill-rule="evenodd"
    clip-rule="evenodd"
    d="M133.724 34.9899C138.256 31.1033 144.029 28.9668 149.999 28.9668C155.97 28.9668 161.743 31.1033 166.274 34.9899L245.474 102.865L276.562 127.74C277.844 128.766 278.911 130.034 279.703 131.473C280.495 132.911 280.996 134.492 281.177 136.124C281.358 137.756 281.216 139.407 280.759 140.984C280.301 142.561 279.538 144.033 278.512 145.315C277.486 146.597 276.218 147.664 274.779 148.456C273.341 149.248 271.76 149.749 270.128 149.93C268.496 150.111 266.845 149.969 265.268 149.511C263.691 149.054 262.219 148.291 260.937 147.265L249.999 138.515V237.502C249.999 244.133 247.366 250.492 242.677 255.18C237.989 259.868 231.63 262.502 224.999 262.502H174.999V200.002C174.999 193.372 172.366 187.013 167.677 182.325C162.989 177.636 156.63 175.002 149.999 175.002C143.369 175.002 137.01 177.636 132.322 182.325C127.633 187.013 124.999 193.372 124.999 200.002V262.502H74.9994C68.369 262.502 62.0102 259.868 57.3218 255.18C52.6333 250.492 49.9994 244.133 49.9994 237.502V138.502L39.0619 147.252C37.7886 148.34 36.3098 149.16 34.7133 149.665C33.1169 150.17 31.4353 150.349 29.7683 150.191C28.1014 150.033 26.4831 149.542 25.0095 148.747C23.5359 147.952 22.2371 146.869 21.1901 145.563C20.1431 144.256 19.3693 142.752 18.9146 141.141C18.4599 139.53 18.3336 137.843 18.5431 136.182C18.7527 134.521 19.2939 132.919 20.1345 131.47C20.9752 130.022 22.0982 128.758 23.4369 127.752L54.5244 102.877L133.724 34.9899Z"/>
</svg>
