<svg viewBox="0 0 300 300" fill="none" xmlns="http://www.w3.org/2000/svg">
<path fill-rule="evenodd" clip-rule="evenodd" d="M150 62.5C140.226 62.4969 130.666 65.3585 122.501 70.731C114.336 76.1035 107.924 83.7512 104.059 92.7285C100.195 101.706 99.0456 111.619 100.755 121.242C102.463 130.866 106.955 139.777 113.675 146.875C99.7023 154.602 88.5613 166.588 81.8747 181.088C75.1881 195.588 73.3052 211.843 76.5001 227.487C77.0739 230.313 78.6069 232.854 80.8394 234.678C83.072 236.503 85.8667 237.5 88.7501 237.5H211.25C214.133 237.5 216.928 236.503 219.161 234.678C221.393 232.854 222.926 230.313 223.5 227.487C226.698 211.841 224.816 195.583 218.13 181.081C211.443 166.579 200.3 154.59 186.325 146.862C193.041 139.764 197.529 130.854 199.236 121.233C200.942 111.611 199.792 101.701 195.928 92.726C192.063 83.7512 185.654 76.1054 177.491 70.7335C169.329 65.3617 159.772 62.4992 150 62.5ZM207.3 134.738C210.625 128.038 212.5 120.487 212.5 112.5C212.5 104.513 210.625 96.9625 207.3 90.2625C210.238 86.3097 213.925 82.9742 218.151 80.4464C222.378 77.9187 227.061 76.2482 231.933 75.5302C236.805 74.8123 241.771 75.0611 246.547 76.2623C251.323 77.4636 255.816 79.5937 259.769 82.5313C263.722 85.4688 267.057 89.1561 269.585 93.3826C272.113 97.6092 273.783 102.292 274.501 107.164C275.219 112.037 274.97 117.002 273.769 121.779C272.568 126.555 270.438 131.047 267.5 135C273.71 139.657 278.75 145.697 282.221 152.639C285.693 159.582 287.5 167.238 287.5 175V187.5C287.5 190.815 286.183 193.995 283.839 196.339C281.495 198.683 278.315 200 275 200H236.463C234.578 188.886 230.215 178.34 223.697 169.143C217.179 159.947 208.674 152.336 198.813 146.875C202.05 143.455 204.789 139.597 206.95 135.413C207.132 135.274 207.316 135.136 207.5 135L207.3 134.738ZM101.175 146.862C97.943 143.446 95.2078 139.591 93.0501 135.413C92.8677 135.274 92.6844 135.136 92.5001 135L92.7001 134.738C89.2676 127.828 87.4874 120.215 87.5001 112.5C87.5001 104.513 89.3751 96.9625 92.7001 90.2625C89.7626 86.3097 86.0753 82.9742 81.8487 80.4464C77.6221 77.9187 72.9391 76.2482 68.0669 75.5302C63.1947 74.8123 58.2288 75.0611 53.4528 76.2623C48.6768 77.4636 44.1841 79.5937 40.2313 82.5313C36.2785 85.4688 32.943 89.1561 30.4153 93.3826C27.8875 97.6092 26.217 102.292 25.4991 107.164C24.7811 112.037 25.0299 117.002 26.2311 121.779C27.4324 126.555 29.5626 131.047 32.5001 135C23.9684 141.381 17.7016 150.323 14.616 160.521C11.5303 170.718 11.7875 181.635 15.3501 191.675C16.2125 194.109 17.8076 196.216 19.916 197.707C22.0245 199.197 24.5429 199.999 27.1251 200H63.5251C65.4085 188.888 69.7698 178.342 76.2854 169.145C82.8009 159.949 91.3036 152.337 101.163 146.875L101.175 146.862Z"/>
</svg>
