<svg viewBox="0 0 300 300" fill="none" xmlns="http://www.w3.org/2000/svg">
<path fill-rule="evenodd" clip-rule="evenodd" d="M25 150C25 80.9625 80.9625 25 150 25C219.037 25 275 80.9625 275 150C275 219.037 219.037 275 150 275C80.9625 275 25 219.037 25 150ZM118.75 114.188C118.75 98.2875 137.288 89.6125 149.5 99.7875L192.475 135.6C194.585 137.36 196.283 139.562 197.448 142.05C198.613 144.538 199.217 147.252 199.217 150C199.217 152.748 198.613 155.462 197.448 157.95C196.283 160.438 194.585 162.64 192.475 164.4L149.5 200.213C137.288 210.388 118.75 201.712 118.75 185.812V114.188Z" />
</svg>
