<svg viewBox="0 0 300 300" fill="none" xmlns="http://www.w3.org/2000/svg">
<path fill-rule="evenodd" clip-rule="evenodd" d="M137.5 25C130.87 25 124.511 27.6339 119.822 32.3223C115.134 37.0107 112.5 43.3696 112.5 50V59.4625L103.663 68.3L112.5 59.4625L105.8 52.775C101.112 48.0882 94.7541 45.4553 88.125 45.4553C81.4959 45.4553 75.1382 48.0882 70.45 52.775L52.775 70.45C48.0882 75.1382 45.4553 81.4959 45.4553 88.125C45.4553 94.7541 48.0882 101.112 52.775 105.8L59.4625 112.5H50C43.3696 112.5 37.0107 115.134 32.3223 119.822C27.6339 124.511 25 130.87 25 137.5V162.5C25 169.13 27.6339 175.489 32.3223 180.178C37.0107 184.866 43.3696 187.5 50 187.5H59.4625L52.775 194.2C48.0882 198.888 45.4553 205.246 45.4553 211.875C45.4553 218.504 48.0882 224.862 52.775 229.55L70.45 247.225C75.1382 251.912 81.4959 254.545 88.125 254.545C94.7541 254.545 101.112 251.912 105.8 247.225L96.9625 238.387L105.8 247.225L112.5 240.538V250C112.5 256.63 115.134 262.989 119.822 267.678C124.511 272.366 130.87 275 137.5 275H162.5C169.13 275 175.489 272.366 180.178 267.678C184.866 262.989 187.5 256.63 187.5 250V240.538L194.2 247.225C198.888 251.912 205.246 254.545 211.875 254.545C218.504 254.545 224.862 251.912 229.55 247.225L247.225 229.55C249.548 227.228 251.39 224.472 252.647 221.438C253.904 218.404 254.551 215.153 254.551 211.869C254.551 208.585 253.904 205.333 252.647 202.299C251.39 199.266 249.548 196.509 247.225 194.188L240.538 187.5H250C256.63 187.5 262.989 184.866 267.678 180.178C272.366 175.489 275 169.13 275 162.5V137.5C275 130.87 272.366 124.511 267.678 119.822C262.989 115.134 256.63 112.5 250 112.5H240.538L247.225 105.8C251.912 101.112 254.545 94.7541 254.545 88.125C254.545 81.4959 251.912 75.1382 247.225 70.45L229.55 52.775C224.862 48.0882 218.504 45.4553 211.875 45.4553C205.246 45.4553 198.888 48.0882 194.2 52.775L187.5 59.4625V50C187.5 43.3696 184.866 37.0107 180.178 32.3223C175.489 27.6339 169.13 25 162.5 25H137.5ZM200 150C200 163.261 194.732 175.979 185.355 185.355C175.979 194.732 163.261 200 150 200C136.739 200 124.021 194.732 114.645 185.355C105.268 175.979 100 163.261 100 150C100 136.739 105.268 124.021 114.645 114.645C124.021 105.268 136.739 100 150 100C163.261 100 175.979 105.268 185.355 114.645C194.732 124.021 200 136.739 200 150ZM150 175C156.63 175 162.989 172.366 167.678 167.678C172.366 162.989 175 156.63 175 150C175 143.37 172.366 137.011 167.678 132.322C162.989 127.634 156.63 125 150 125C143.37 125 137.011 127.634 132.322 132.322C127.634 137.011 125 143.37 125 150C125 156.63 127.634 162.989 132.322 167.678C137.011 172.366 143.37 175 150 175Z"/>
</svg>
