<svg viewBox="0 0 4062 814" fill="none" xmlns="http://www.w3.org/2000/svg">
  <path d="M1135.23 79.0547C1131.98 79.7057 1129.05 80.6823 1126.44 81.9844C1123.84 83.2865 1120.91 84.263 1117.65 84.9141C1106.58 98.5859 1096.82 113.56 1088.36 129.836C1080.54 146.112 1072.08 162.714 1062.96 179.641C1059.71 186.802 1055.48 195.266 1050.27 205.031C1045.71 214.146 1042.13 223.586 1039.53 233.352C1034.32 252.883 1029.76 273.391 1025.86 294.875C1021.95 316.359 1014.79 334.914 1004.37 350.539C1003.07 353.143 1000.79 356.398 997.535 360.305C994.28 364.211 991.025 367.792 987.77 371.047C985.165 374.302 981.585 377.557 977.027 380.812C972.47 384.068 969.866 386.997 969.215 389.602C968.564 393.508 969.215 397.414 971.168 401.32C973.121 405.227 973.772 409.133 973.121 413.039C972.47 418.898 969.54 424.432 964.332 429.641C959.775 434.849 955.868 440.708 952.613 447.219C950.009 453.078 947.73 458.938 945.777 464.797C943.824 470.005 941.22 475.865 937.965 482.375C932.105 493.443 924.944 505.161 916.48 517.531C908.017 529.901 900.53 542.271 894.02 554.641C884.254 574.172 874.814 594.354 865.699 615.188C857.236 635.37 846.819 653.924 834.449 670.852C829.892 677.362 825.009 682.896 819.801 687.453C815.243 692.01 811.337 697.87 808.082 705.031C806.78 707.635 806.129 710.24 806.129 712.844C806.129 715.448 805.478 718.052 804.176 720.656C800.921 727.167 795.712 733.352 788.551 739.211C782.04 745.07 775.855 751.255 769.996 757.766C764.788 764.927 758.928 771.438 752.418 777.297C746.559 783.156 740.374 787.714 733.863 790.969C720.191 788.365 707.171 785.435 694.801 782.18C682.431 779.576 670.061 776.646 657.691 773.391C653.785 772.74 650.855 770.786 648.902 767.531C646.949 764.276 645.322 761.021 644.02 757.766C636.858 763.625 630.999 765.253 626.441 762.648C622.535 760.044 617.327 757.115 610.816 753.859C607.561 752.557 604.306 751.255 601.051 749.953C598.447 749.302 596.168 748.326 594.215 747.023C581.845 740.513 573.382 733.352 568.824 725.539C565.569 700.799 562.639 676.06 560.035 651.32C557.431 625.93 554.176 601.19 550.27 577.102C548.967 571.242 547.34 565.383 545.387 559.523C544.085 553.664 544.085 547.154 545.387 539.992C546.689 532.18 549.293 524.367 553.199 516.555C557.757 508.091 560.035 499.953 560.035 492.141C560.686 486.932 559.384 482.701 556.129 479.445C552.874 475.539 550.27 470.982 548.316 465.773C547.014 461.216 545.712 455.357 544.41 448.195C543.108 440.383 541.806 432.896 540.504 425.734C537.9 408.156 537.9 388.625 540.504 367.141C543.759 345.656 547.014 324.497 550.27 303.664C553.525 282.831 555.478 262.974 556.129 244.094C556.78 225.214 553.199 209.263 545.387 196.242C539.527 196.242 534.97 197.87 531.715 201.125C528.46 203.729 525.855 207.31 523.902 211.867C522.6 215.773 521.298 220.331 519.996 225.539C518.694 230.747 516.741 235.63 514.137 240.188C510.882 246.698 506.324 252.557 500.465 257.766C495.257 262.323 490.374 268.182 485.816 275.344C479.306 284.458 473.772 295.526 469.215 308.547C464.658 321.568 459.449 333.612 453.59 344.68C449.684 353.143 444.801 362.258 438.941 372.023C433.733 381.138 430.478 392.206 429.176 405.227C425.921 406.529 423.316 408.482 421.363 411.086C419.41 413.69 416.806 415.643 413.551 416.945C404.436 433.872 394.345 450.799 383.277 467.727C372.861 484.654 362.118 501.906 351.051 519.484C339.983 536.411 329.241 553.99 318.824 572.219C308.408 589.797 299.618 607.375 292.457 624.953C289.853 628.208 285.947 631.789 280.738 635.695C275.53 638.951 271.298 643.182 268.043 648.391C266.09 652.297 264.788 656.854 264.137 662.062C264.137 666.62 263.16 671.503 261.207 676.711C258.603 683.872 254.697 691.034 249.488 698.195C244.28 704.706 240.048 711.542 236.793 718.703C230.934 731.724 223.447 744.094 214.332 755.812C205.868 768.182 196.103 778.599 185.035 787.062C180.478 790.318 174.618 793.573 167.457 796.828C160.296 800.083 152.483 800.734 144.02 798.781C140.764 798.13 137.509 796.503 134.254 793.898C131.65 791.945 128.72 789.667 125.465 787.062C122.21 785.109 118.629 783.482 114.723 782.18C110.816 781.529 106.259 781.854 101.051 783.156C95.8424 778.599 92.2617 774.042 90.3086 769.484C88.3555 764.927 84.7747 760.37 79.5664 755.812C76.3112 753.208 72.7305 750.93 68.8242 748.977C65.569 747.674 61.9883 746.047 58.082 744.094C54.8268 742.141 51.5716 739.862 48.3164 737.258C45.7122 734.003 43.7591 729.771 42.457 724.562C40.5039 716.099 39.2018 706.008 38.5508 694.289C37.8997 682.57 37.5742 670.526 37.5742 658.156C38.2253 645.135 38.5508 632.115 38.5508 619.094C38.5508 605.422 38.2253 592.076 37.5742 579.055C36.2721 565.383 35.6211 553.013 35.6211 541.945C35.6211 530.227 34.9701 518.833 33.668 507.766C33.668 504.51 33.0169 500.93 31.7148 497.023C30.4128 493.117 29.7617 489.536 29.7617 486.281C30.4128 479.12 32.6914 472.935 36.5977 467.727C40.5039 461.867 42.457 456.333 42.457 451.125C42.457 443.312 40.8294 435.174 37.5742 426.711C32.3659 416.294 28.1341 404.576 24.8789 391.555C21.6237 377.883 20.6471 362.258 21.9492 344.68C23.2513 331.659 24.5534 317.987 25.8555 303.664C27.8086 289.341 28.1341 274.042 26.832 257.766C26.181 242.141 24.8789 227.818 22.9258 214.797C21.6237 201.125 22.2747 185.826 24.8789 168.898C25.5299 161.737 27.1576 153.924 29.7617 145.461C32.3659 136.346 33.0169 126.255 31.7148 115.188C31.0638 110.63 29.1107 105.422 25.8555 99.5625C23.2513 93.0521 19.9961 86.5417 16.0898 80.0312C12.1836 73.5208 8.60286 67.0104 5.34766 60.5C2.74349 53.3385 1.11589 46.8281 0.464844 40.9688C7.6263 32.5052 16.4154 28.9245 26.832 30.2266C37.2487 31.5286 47.9909 33.1562 59.0586 35.1094C64.2669 35.7604 69.4753 35.7604 74.6836 35.1094C79.8919 34.4583 85.1003 34.4583 90.3086 35.1094C107.236 36.4115 125.139 38.6901 144.02 41.9453C162.9 44.5495 181.129 45.2005 198.707 43.8984C228.004 41.2943 255.999 39.3411 282.691 38.0391C309.384 36.0859 336.402 34.1328 363.746 32.1797C363.746 36.0859 363.421 40.3177 362.77 44.875C362.118 49.4323 360.816 53.3385 358.863 56.5938C354.957 61.8021 348.121 67.0104 338.355 72.2188C328.59 77.4271 319.475 81.3333 311.012 83.9375C303.199 86.5417 297.014 88.1693 292.457 88.8203C287.9 89.4714 282.04 91.75 274.879 95.6562C267.066 100.214 261.207 105.096 257.301 110.305C254.046 115.513 249.814 121.047 244.605 126.906C241.35 142.531 240.048 160.435 240.699 180.617C242.001 200.148 242.001 219.68 240.699 239.211C239.397 249.628 238.095 259.719 236.793 269.484C235.491 279.25 234.84 288.69 234.84 297.805C234.84 306.919 234.84 315.383 234.84 323.195C234.84 331.008 231.259 338.495 224.098 345.656C226.051 371.047 226.702 397.414 226.051 424.758C225.4 452.102 226.376 478.469 228.98 503.859C234.84 501.906 241.35 497.674 248.512 491.164C255.673 484.654 260.882 478.143 264.137 471.633C266.09 466.424 267.066 460.891 267.066 455.031C267.717 449.172 269.02 443.638 270.973 438.43C274.228 428.013 278.785 418.573 284.645 410.109C290.504 400.995 296.363 392.206 302.223 383.742C308.082 374.628 313.616 365.513 318.824 356.398C324.033 347.284 327.939 337.193 330.543 326.125C333.798 325.474 336.402 324.497 338.355 323.195C340.96 321.893 343.564 320.591 346.168 319.289C349.423 310.174 351.702 302.036 353.004 294.875C354.306 287.714 358.538 280.552 365.699 273.391C368.303 270.135 371.559 267.531 375.465 265.578C380.022 262.974 384.254 260.37 388.16 257.766C392.066 255.161 395.322 252.557 397.926 249.953C401.181 247.349 403.46 243.768 404.762 239.211C406.064 235.305 405.738 231.724 403.785 228.469C402.483 225.214 402.483 221.307 403.785 216.75C404.436 211.542 407.366 205.357 412.574 198.195C418.434 190.383 422.991 182.896 426.246 175.734C434.059 162.714 440.569 152.297 445.777 144.484C450.986 136.021 457.822 126.255 466.285 115.188C474.749 104.771 481.91 96.3073 487.77 89.7969C493.629 83.2865 500.79 75.1484 509.254 65.3828C514.462 59.5234 519.345 53.3385 523.902 46.8281C529.111 40.3177 533.342 36.4115 536.598 35.1094C543.759 31.2031 551.897 30.2266 561.012 32.1797C570.777 33.4818 580.543 33.4818 590.309 32.1797C596.168 31.5286 602.678 29.25 609.84 25.3438C617.001 21.4375 624.814 18.8333 633.277 17.5312C644.345 15.5781 655.738 14.9271 667.457 15.5781C679.176 16.2292 690.243 18.1823 700.66 21.4375C711.077 24.0417 719.866 28.2734 727.027 34.1328C734.189 39.9922 738.421 47.8047 739.723 57.5703C737.118 66.6849 736.793 76.125 738.746 85.8906C741.35 95.6562 741.676 106.073 739.723 117.141C736.467 132.766 729.957 147.74 720.191 162.062C711.077 176.385 705.217 192.01 702.613 208.938C701.311 220.005 702.288 231.398 705.543 243.117C709.449 254.836 712.053 267.206 713.355 280.227C714.007 284.784 713.681 289.341 712.379 293.898C711.728 298.456 712.053 303.339 713.355 308.547C715.309 327.427 717.262 346.958 719.215 367.141C719.866 375.604 719.215 384.393 717.262 393.508C715.309 401.971 713.03 410.76 710.426 419.875C708.473 428.339 706.194 436.802 703.59 445.266C701.637 453.729 700.66 461.867 700.66 469.68C701.311 480.747 702.288 492.792 703.59 505.812C704.892 518.833 706.845 528.924 709.449 536.086C710.751 539.341 713.03 542.596 716.285 545.852C720.191 549.107 722.796 552.362 724.098 555.617C726.702 562.779 727.027 570.266 725.074 578.078C723.772 585.891 724.749 592.401 728.004 597.609C735.816 596.307 739.723 593.052 739.723 587.844C739.723 581.984 740.699 576.776 742.652 572.219C745.908 563.104 751.116 553.664 758.277 543.898C765.439 534.133 772.6 523.716 779.762 512.648C793.434 491.815 804.827 471.633 813.941 452.102C817.848 445.591 820.777 438.43 822.73 430.617C825.335 422.805 828.264 416.294 831.52 411.086C835.426 405.227 839.658 400.669 844.215 397.414C849.423 393.508 852.678 387.974 853.98 380.812C856.585 374.953 857.236 369.419 855.934 364.211C854.632 358.352 854.306 352.818 854.957 347.609C855.608 340.448 857.887 332.961 861.793 325.148C866.35 317.336 871.233 309.198 876.441 300.734C881.65 292.271 886.533 283.807 891.09 275.344C896.298 266.229 900.53 256.789 903.785 247.023C907.04 235.305 910.296 224.888 913.551 215.773C916.806 206.008 921.038 196.242 926.246 186.477C929.501 179.315 933.408 172.805 937.965 166.945C943.173 160.435 947.079 154.25 949.684 148.391C952.939 141.229 954.892 133.742 955.543 125.93C956.845 118.117 958.798 110.63 961.402 103.469C963.355 96.3073 965.96 
  89.1458 969.215 81.9844C972.47 74.1719 974.423 67.6615 975.074 62.4531C975.074 59.1979 974.749 56.2682 974.098 53.6641C973.447 51.0599 973.447 48.7812 974.098 46.8281C974.749 42.9219 977.027 39.3411 980.934 36.0859C984.84 32.1797 989.072 28.599 993.629 25.3438C998.837 22.0885 1004.05 19.1589 1009.25 16.5547C1015.11 13.9505 1020 11.9974 1023.9 10.6953C1036.92 7.4401 1052.55 7.11458 1070.78 9.71875C1089.01 11.6719 1106.26 13.2995 1122.54 14.6016C1132.3 15.2526 1144.02 14.9271 1157.69 13.625C1171.36 12.3229 1185.04 11.0208 1198.71 9.71875C1214.33 8.41667 1229.96 6.46354 1245.58 3.85938C1261.86 1.25521 1276.51 0.278646 1289.53 0.929688C1292.78 0.929688 1297.01 1.90625 1302.22 3.85938C1307.43 5.16146 1310.04 7.4401 1310.04 10.6953C1310.69 13.9505 1309.38 16.8802 1306.13 19.4844C1303.52 21.4375 1299.94 23.7161 1295.39 26.3203C1291.48 28.2734 1286.92 30.2266 1281.71 32.1797C1277.16 33.4818 1272.93 34.4583 1269.02 35.1094C1256.65 38.3646 1243.95 40.9688 1230.93 42.9219C1218.56 44.875 1206.52 47.1536 1194.8 49.7578C1183.08 51.7109 1172.01 54.9661 1161.6 59.5234C1151.18 64.0807 1142.39 70.5911 1135.23 79.0547Z"/>
  
  <path d="M1570.78 291.945C1553.2 300.409 1535.62 304.641 1518.04 304.641C1500.46 304.641 1480.93 303.99 1459.45 302.688C1453.59 302.688 1447.08 303.013 1439.92 303.664C1433.41 304.315 1427.22 304.966 1421.36 305.617C1390.76 308.872 1365.05 320.591 1344.21 340.773C1323.38 360.305 1308.08 385.044 1298.32 414.992C1295.06 426.06 1292.46 436.151 1290.5 445.266C1288.55 454.38 1292.78 459.589 1303.2 460.891C1309.71 462.193 1316.22 462.193 1322.73 460.891C1329.24 459.589 1335.75 457.961 1342.26 456.008C1349.42 453.404 1356.26 451.125 1362.77 449.172C1369.28 447.219 1375.79 446.242 1382.3 446.242C1384.9 446.242 1387.18 446.893 1389.14 448.195C1391.74 449.497 1394.35 450.148 1396.95 450.148C1408.02 451.451 1419.74 450.799 1432.11 448.195C1444.48 444.94 1455.87 444.615 1466.29 447.219C1468.24 447.87 1469.87 449.172 1471.17 451.125C1473.12 452.427 1475.73 453.729 1478.98 455.031C1487.44 458.286 1497.54 460.565 1509.25 461.867C1520.97 462.518 1530.41 464.471 1537.57 467.727C1540.83 469.029 1544.08 471.633 1547.34 475.539C1550.6 478.794 1552.22 481.073 1552.22 482.375C1552.22 489.536 1547.99 494.094 1539.53 496.047C1531.06 498 1523.9 499.302 1518.04 499.953C1512.83 500.604 1507.63 500.604 1502.42 499.953C1497.21 499.302 1492 499.628 1486.79 500.93C1477.68 502.232 1468.89 504.185 1460.43 506.789C1451.96 508.742 1442.85 511.346 1433.08 514.602C1422.01 518.508 1411.6 523.391 1401.83 529.25C1392.07 534.458 1381.32 537.714 1369.61 539.016C1361.14 540.318 1353 540.318 1345.19 539.016C1337.38 537.714 1328.92 537.714 1319.8 539.016C1316.55 539.667 1313.29 540.643 1310.04 541.945C1307.43 543.247 1304.5 544.224 1301.25 544.875C1295.39 546.177 1290.83 547.154 1287.57 547.805C1284.97 547.805 1282.69 548.456 1280.74 549.758C1279.44 551.06 1277.81 553.013 1275.86 555.617C1274.55 558.221 1272.27 562.128 1269.02 567.336C1263.81 579.055 1260.56 591.75 1259.25 605.422C1257.95 618.443 1256.65 632.44 1255.35 647.414C1262.51 654.576 1269.35 660.435 1275.86 664.992C1282.37 668.898 1292.46 670.852 1306.13 670.852C1313.29 670.852 1318.82 670.201 1322.73 668.898C1327.29 666.945 1333.15 665.643 1340.31 664.992C1347.47 664.992 1354.63 665.643 1361.79 666.945C1368.95 667.596 1377.09 667.596 1386.21 666.945C1405.09 665.643 1421.04 663.365 1434.06 660.109C1447.08 656.203 1463.03 654.901 1481.91 656.203C1485.82 656.203 1492.65 656.529 1502.42 657.18C1512.83 657.831 1523.25 658.807 1533.67 660.109C1544.08 660.76 1553.2 662.062 1561.01 664.016C1569.48 665.969 1573.71 668.573 1573.71 671.828C1573.71 675.734 1571.1 679.966 1565.89 684.523C1561.34 688.43 1555.8 692.336 1549.29 696.242C1543.43 699.497 1537.25 702.427 1530.74 705.031C1524.88 706.984 1520.97 708.286 1519.02 708.938C1507.95 712.193 1497.21 713.169 1486.79 711.867C1476.38 709.914 1464.98 709.589 1452.61 710.891C1443.5 712.193 1435.36 714.146 1428.2 716.75C1421.04 719.354 1413.88 722.284 1406.71 725.539C1399.55 728.143 1392.07 731.073 1384.25 734.328C1377.09 736.932 1368.63 738.56 1358.86 739.211C1345.84 740.513 1334.77 742.141 1325.66 744.094C1316.55 745.396 1305.8 747.349 1293.43 749.953C1288.23 751.255 1283.34 752.557 1278.79 753.859C1274.23 755.812 1269.35 757.44 1264.14 758.742C1245.26 762.648 1224.75 763.299 1202.61 760.695C1181.13 758.742 1157.69 759.068 1132.3 761.672C1116.02 763.625 1101.38 765.904 1088.36 768.508C1075.99 771.763 1063.29 772.74 1050.27 771.438C1045.71 770.786 1041.48 770.135 1037.57 769.484C1033.02 769.484 1029.11 767.857 1025.86 764.602C1027.16 759.393 1030.09 754.836 1034.64 750.93C1039.2 747.023 1043.76 743.443 1048.32 740.188C1052.87 736.281 1057.11 732.375 1061.01 728.469C1065.57 723.911 1069.8 719.68 1073.71 715.773C1077.61 710.565 1080.87 704.38 1083.47 697.219C1086.08 689.406 1088.36 681.594 1090.31 673.781C1092.91 665.969 1095.52 658.807 1098.12 652.297C1101.38 645.135 1105.28 638.951 1109.84 633.742C1104.63 622.023 1104.63 608.677 1109.84 593.703C1115.7 578.729 1120.91 563.104 1125.46 546.828C1126.77 542.922 1127.42 539.016 1127.42 535.109C1127.42 531.203 1128.07 527.622 1129.37 524.367C1130.67 517.857 1133.6 512.323 1138.16 507.766C1142.72 502.557 1145.65 497.349 1146.95 492.141C1147.6 488.885 1147.6 485.63 1146.95 482.375C1146.95 479.12 1147.27 475.865 1147.93 472.609C1149.23 462.844 1151.51 453.729 1154.76 445.266C1158.67 436.151 1161.27 428.013 1162.57 420.852C1163.88 415.643 1163.88 410.435 1162.57 405.227C1161.92 399.367 1161.92 393.833 1162.57 388.625C1163.88 375.604 1166.48 363.234 1170.39 351.516C1174.94 339.797 1177.55 329.38 1178.2 320.266C1178.85 313.104 1177.87 305.292 1175.27 296.828C1172.67 288.365 1170.06 281.854 1167.46 277.297C1165.5 274.042 1162.57 270.786 1158.67 267.531C1154.76 263.625 1150.86 260.044 1146.95 256.789C1143.04 253.534 1139.46 250.604 1136.21 248C1133.6 244.745 1132.3 241.815 1132.3 239.211C1132.95 232.049 1135.88 228.469 1141.09 228.469C1146.3 227.818 1151.18 225.539 1155.74 221.633C1179.18 222.284 1201.31 224.888 1222.14 229.445C1243.63 234.003 1265.76 236.932 1288.55 238.234C1297.01 239.536 1305.8 239.536 1314.92 238.234C1324.03 236.281 1332.82 234.979 1341.29 234.328C1354.96 233.677 1370.26 235.63 1387.18 240.188C1404.76 244.745 1422.01 246.372 1438.94 245.07C1461.73 243.768 1483.21 243.117 1503.39 243.117C1523.58 243.117 1544.74 242.466 1566.87 241.164C1570.78 244.419 1576.64 246.047 1584.45 246.047C1592.26 245.396 1600.07 244.745 1607.89 244.094C1616.35 242.792 1623.84 242.466 1630.35 243.117C1637.51 243.768 1642.39 246.698 1645 251.906C1648.9 261.021 1648.25 268.833 1643.04 275.344C1637.83 281.854 1630.67 286.086 1621.56 288.039C1618.95 288.039 1615.37 288.365 1610.82 289.016C1606.26 289.667 1601.38 290.318 1596.17 290.969C1590.96 291.62 1585.75 291.945 1580.54 291.945C1575.99 291.945 1572.73 291.945 1570.78 291.945Z"/>
  
  <path d="M1837.38 739.211C1832.82 738.56 1825.99 740.188 1816.87 744.094C1808.41 748 1800.6 751.255 1793.43 753.859C1786.27 755.812 1778.46 758.091 1770 760.695C1761.53 763.299 1753.39 764.276 1745.58 763.625C1740.37 762.974 1735.49 761.346 1730.93 758.742C1726.38 756.789 1722.14 756.138 1718.24 756.789C1714.98 756.789 1712.05 758.091 1709.45 760.695C1706.85 763.299 1703.59 765.253 1699.68 766.555C1692.52 769.159 1684.06 771.112 1674.29 772.414C1664.53 774.367 1655.09 775.018 1645.97 774.367C1636.86 773.716 1629.37 771.112 1623.51 766.555C1618.3 762.648 1616.68 756.138 1618.63 747.023C1619.93 741.164 1622.21 735.305 1625.46 729.445C1629.37 722.935 1632.95 715.773 1636.21 707.961C1641.42 694.289 1645.32 679.966 1647.93 664.992C1650.53 649.367 1654.11 636.997 1658.67 627.883C1661.27 622.674 1665.18 617.792 1670.39 613.234C1675.6 608.677 1678.52 603.794 1679.18 598.586C1679.83 594.68 1679.18 591.424 1677.22 588.82C1675.27 586.216 1674.29 582.635 1674.29 578.078C1674.29 574.823 1674.94 571.568 1676.25 568.312C1678.2 564.406 1679.5 559.849 1680.15 554.641C1680.8 549.432 1680.8 544.875 1680.15 540.969C1679.5 536.411 1679.83 532.505 1681.13 529.25C1682.43 525.344 1684.38 521.763 1686.99 518.508C1689.59 514.602 1692.2 511.021 1694.8 507.766C1698.06 503.859 1700.66 499.628 1702.61 495.07C1704.57 490.513 1705.54 485.305 1705.54 479.445C1705.54 476.19 1706.52 470.982 1708.47 463.82C1710.43 456.008 1711.08 450.148 1710.43 446.242C1708.47 432.57 1708.47 421.177 1710.43 412.062C1713.03 402.948 1715.96 394.81 1719.21 387.648C1723.12 379.836 1727.03 372.023 1730.93 364.211C1735.49 356.398 1738.75 346.958 1740.7 335.891C1743.3 322.219 1745.26 307.896 1746.56 292.922C1747.86 277.948 1750.14 264.602 1753.39 252.883C1757.3 240.513 1762.83 230.747 1770 223.586C1777.81 216.424 1789.53 213.82 1805.15 215.773C1811.66 223.586 1815.89 231.073 1817.85 238.234C1820.45 245.396 1824.03 253.534 1828.59 262.648C1830.54 267.857 1835.75 272.414 1844.21 276.32C1852.68 280.227 1858.54 284.458 1861.79 289.016C1865.05 292.922 1868.63 297.154 1872.54 301.711C1877.09 305.617 1880.02 309.849 1881.32 314.406C1883.28 322.87 1883.6 332.635 1882.3 343.703C1881.65 354.771 1881 364.862 1880.35 373.977C1879.7 379.185 1879.05 384.719 1878.39 390.578C1877.74 395.786 1876.77 400.344 1875.46 404.25C1874.16 408.807 1872.54 412.714 1870.58 415.969C1869.28 419.224 1868.3 422.479 1867.65 425.734C1866.35 432.245 1865.37 438.104 1864.72 443.312C1864.72 447.87 1864.07 452.427 1862.77 456.984C1859.51 466.75 1854.63 475.214 1848.12 482.375C1842.26 489.536 1837.7 498 1834.45 507.766C1832.5 512.323 1830.87 517.531 1829.57 523.391C1828.92 529.25 1827.94 534.784 1826.64 539.992C1822.73 554.315 1818.5 570.591 1813.94 588.82C1809.38 607.049 1807.76 624.628 1809.06 641.555C1814.27 640.253 1818.82 639.276 1822.73 638.625C1826.64 637.974 1830.22 637.648 1833.47 637.648C1836.73 636.997 1840.31 636.997 1844.21 637.648C1848.77 638.299 1854.31 639.276 1860.82 640.578C1870.58 643.182 1881.32 646.438 1893.04 650.344C1904.76 654.25 1916.81 656.854 1929.18 658.156C1938.29 658.807 1947.4 658.807 1956.52 658.156C1966.29 657.505 1975.73 657.831 1984.84 659.133C1993.95 660.435 2002.42 662.062 2010.23 664.016C2018.69 665.318 2026.51 665.318 2033.67 664.016C2036.92 662.714 2039.2 661.737 2040.5 661.086C2042.46 659.784 2044.74 658.807 2047.34 658.156C2057.76 656.203 2069.8 656.529 2083.47 659.133C2097.14 661.086 2109.84 662.714 2121.56 664.016C2123.51 664.016 2126.44 664.016 2130.35 664.016C2134.25 663.365 2138.16 663.365 2142.07 664.016C2145.97 664.016 2149.23 664.992 2151.83 666.945C2154.44 668.898 2155.74 671.828 2155.74 675.734C2155.09 681.594 2150.53 686.151 2142.07 689.406C2134.25 692.661 2127.74 694.94 2122.54 696.242C2114.72 698.195 2107.24 699.172 2100.07 699.172C2093.56 699.172 2086.4 700.148 2078.59 702.102C2071.43 704.055 2064.92 706.659 2059.06 709.914C2053.85 712.518 2048.32 714.471 2042.46 715.773C2040.5 717.076 2038.55 717.727 2036.6 717.727C2034.64 717.076 2032.37 717.076 2029.76 717.727C2025.86 719.029 2021.3 721.307 2016.09 724.562C2010.88 727.167 2006.65 728.794 2003.39 729.445C1991.68 732.049 1978.98 731.398 1965.31 727.492C1952.29 723.586 1938.94 722.284 1925.27 723.586C1920.06 724.237 1914.85 725.539 1909.64 727.492C1904.44 728.794 1899.23 730.096 1894.02 731.398C1888.81 732.701 1883.6 733.677 1878.39 734.328C1873.19 734.979 1868.63 735.956 1864.72 737.258L1837.38 739.211Z"/>
  
  <path d="M2294.41 598.586C2285.3 617.466 2277.81 638.625 2271.95 662.062C2266.74 685.5 2261.53 706.659 2256.32 725.539C2253.72 734.654 2248.51 741.49 2240.7 746.047C2233.54 749.953 2225.4 752.557 2216.29 753.859C2207.17 755.812 2198.06 757.115 2188.94 757.766C2179.83 758.417 2172.34 759.719 2166.48 761.672C2160.62 763.625 2154.11 766.555 2146.95 770.461C2140.44 775.018 2133.93 778.924 2127.42 782.18C2120.91 786.086 2114.72 789.016 2108.86 790.969C2103.65 792.922 2099.75 792.596 2097.14 789.992C2094.54 787.388 2094.21 781.203 2096.17 771.438C2098.12 762.323 2101.38 751.581 2105.93 739.211C2110.49 726.841 2115.7 714.146 2121.56 701.125C2128.07 687.453 2134.25 675.083 2140.11 664.016C2144.02 656.203 2146.62 645.786 2147.93 632.766C2149.23 619.094 2150.2 607.701 2150.86 598.586C2150.86 595.331 2150.2 592.401 2148.9 589.797C2147.6 586.542 2147.27 583.286 2147.93 580.031C2148.58 576.776 2150.53 572.544 2153.79 567.336C2157.69 562.128 2160.95 556.919 2163.55 551.711C2168.11 539.992 2170.71 526.646 2171.36 511.672C2172.67 496.047 2175.27 483.026 2179.18 472.609C2180.48 469.354 2182.11 466.424 2184.06 463.82C2186.66 460.565 2188.62 457.31 2189.92 454.055C2191.22 450.148 2191.55 445.266 2190.89 439.406C2190.24 433.547 2189.92 428.013 2189.92 422.805C2189.92 414.341 2191.55 404.901 2194.8 394.484C2198.71 383.417 2202.29 373 2205.54 363.234C2208.8 352.818 2211.08 343.052 2212.38 333.938C2214.33 324.172 2214.01 315.708 2211.4 308.547C2209.45 298.781 2208.47 292.271 2208.47 289.016C2208.47 285.76 2207.82 283.482 2206.52 282.18C2203.26 278.924 2201.96 276.971 2202.61 276.32C2203.92 275.018 2202.61 273.065 2198.71 270.461C2195.45 267.206 2192.2 264.602 2188.94 262.648C2186.34 260.044 2182.76 257.115 2178.2 253.859C2174.29 251.255 2170.06 248.977 2165.5 247.023C2161.6 244.419 2159.32 240.188 2158.67 234.328C2164.53 229.12 2169.41 225.539 2173.32 223.586C2177.87 221.633 2182.11 220.656 2186.01 220.656C2189.92 220.005 2194.15 220.331 2198.71 221.633C2203.26 222.284 2208.8 222.935 2215.31 223.586C2226.38 224.888 2236.14 225.214 2244.61 224.562C2253.72 223.911 2264.79 223.586 2277.81 223.586C2286.27 223.586 2295.71 224.562 2306.13 226.516C2317.2 227.818 2326.96 229.12 2335.43 230.422C2343.89 231.724 2352.35 232.049 2360.82 231.398C2369.93 230.096 2378.07 230.096 2385.23 231.398C2391.09 232.701 2396.3 234.328 2400.86 236.281C2405.41 237.583 2410.95 238.234 2417.46 238.234C2435.69 238.234 2452.94 236.281 2469.21 232.375C2486.14 228.469 2502.09 227.818 2517.07 230.422C2522.27 231.724 2527.81 233.352 2533.67 235.305C2540.18 237.258 2546.36 239.211 2552.22 241.164C2558.08 243.117 2562.31 244.745 2564.92 246.047C2568.17 246.698 2572.4 248 2577.61 249.953C2582.82 251.906 2588.03 255.161 2593.24 259.719C2599.1 263.625 2604.96 268.182 2610.82 273.391C2619.93 279.901 2629.05 286.737 2638.16 293.898C2647.93 301.06 2654.44 309.849 2657.69 320.266C2658.99 323.521 2660.62 328.729 2662.57 335.891C2665.18 343.052 2666.48 348.26 2666.48 351.516C2667.13 359.979 2664.85 368.443 2659.64 376.906C2664.85 384.719 2666.81 393.508 2665.5 403.273C2664.2 412.388 2660.95 421.828 2655.74 431.594C2651.18 440.708 2645.32 449.497 2638.16 457.961C2631 466.424 2624.49 473.586 2618.63 479.445C2608.86 488.56 2598.12 496.698 2586.4 503.859C2575.33 510.37 2563.29 516.88 2550.27 523.391C2543.11 526.646 2536.27 530.878 2529.76 536.086C2523.25 540.643 2517.07 544.224 2511.21 546.828C2507.95 548.13 2506 548.456 2505.35 547.805C2505.35 547.154 2503.39 547.154 2499.49 547.805C2486.47 550.409 2473.77 554.966 2461.4 561.477C2449.03 567.987 2436.01 572.87 2422.34 576.125C2419.08 577.427 2415.5 578.078 2411.6 578.078C2407.69 577.427 2404.11 577.427 2400.86 578.078C2391.09 579.38 2381.32 581.984 2371.56 585.891C2362.44 589.146 2353 591.424 2343.24 592.727C2334.12 594.029 2325.66 594.68 2317.85 594.68C2310.69 594.68 2302.87 595.982 2294.41 598.586ZM2342.26 384.719C2339.66 393.833 2337.38 402.948 2335.43 412.062C2334.12 421.177 2332.5 430.292 2330.54 439.406C2329.24 445.266 2326.96 452.102 2323.71 459.914C2321.1 467.727 2318.82 475.539 2316.87 483.352C2314.92 490.513 2314.27 497.023 2314.92 502.883C2315.57 508.742 2318.82 512.648 2324.68 514.602C2327.94 515.253 2330.87 514.927 2333.47 513.625C2336.73 512.323 2340.31 511.346 2344.21 510.695C2346.82 510.695 2349.42 511.346 2352.03 512.648C2355.28 513.299 2358.54 513.299 2361.79 512.648C2385.88 510.695 2408.02 506.464 2428.2 499.953C2449.03 493.443 2462.05 480.096 2467.26 459.914C2469.87 458.612 2472.14 457.635 2474.1 456.984C2476.7 455.682 2479.63 454.38 2482.89 453.078C2492.65 442.661 2500.79 428.339 2507.3 410.109C2514.46 391.88 2518.69 375.279 2520 360.305C2520 355.096 2517.72 349.562 2513.16 343.703C2509.25 337.193 2506.65 332.31 2505.35 329.055C2504.05 326.451 2501.12 323.846 2496.56 321.242C2492 317.987 2486.79 315.057 2480.93 312.453C2475.07 309.198 2468.89 306.594 2462.38 304.641C2456.52 302.688 2451.96 301.385 2448.71 300.734C2441.55 299.432 2435.69 299.758 2431.13 301.711C2426.57 303.013 2421.04 303.99 2414.53 304.641C2405.41 305.292 2396.95 305.292 2389.14 304.641C2381.32 303.99 2374.49 306.594 2368.63 312.453C2366.68 324.172 2362.44 336.216 2355.93 348.586C2350.07 360.305 2345.52 372.349 2342.26 384.719Z"/>
  
  <path d="M3342.26 7.76562C3341.61 11.0208 3341.29 14.6016 3341.29 18.5078C3341.29 21.763 3340.96 25.0182 3340.31 28.2734C3335.1 32.8307 3330.54 35.7604 3326.64 37.0625C3323.38 38.3646 3320.45 41.6198 3317.85 46.8281C3315.89 50.0833 3314.92 53.6641 3314.92 57.5703C3314.92 61.4766 3313.94 65.0573 3311.99 68.3125C3310.04 72.8698 3305.15 77.7526 3297.34 82.9609C3290.18 87.5182 3284.97 90.4479 3281.71 91.75C3277.81 93.7031 3273.58 95.3307 3269.02 96.6328C3265.11 97.9349 3261.21 99.5625 3257.3 101.516C3251.44 104.12 3246.56 106.073 3242.65 107.375C3239.4 108.677 3235.82 109.654 3231.91 110.305C3228 110.305 3223.77 110.63 3219.21 111.281C3214.66 111.281 3208.8 111.932 3201.64 113.234C3199.68 113.234 3198.38 113.885 3197.73 115.188C3197.08 115.839 3195.78 116.815 3193.82 118.117C3191.87 119.419 3188.94 120.721 3185.04 122.023C3181.13 122.674 3175.27 123.326 3167.46 123.977C3160.3 124.628 3154.76 125.279 3150.86 125.93C3147.6 125.93 3142.07 126.581 3134.25 127.883C3129.7 129.185 3125.46 131.138 3121.56 133.742C3117.65 136.346 3113.42 138.625 3108.86 140.578C3099.75 145.786 3092.91 150.995 3088.36 156.203C3084.45 160.76 3081.19 164.992 3078.59 168.898C3074.68 175.409 3072.73 182.896 3072.73 191.359C3073.38 199.172 3072.08 207.635 3068.82 216.75C3066.22 223.26 3061.99 229.771 3056.13 236.281C3050.27 242.792 3046.04 249.628 3043.43 256.789C3042.78 260.044 3042.78 263.625 3043.43 267.531C3044.08 271.438 3044.08 275.669 3043.43 280.227C3042.13 288.69 3039.2 297.479 3034.64 306.594C3030.09 315.057 3026.18 324.172 3022.93 333.938C3021.62 339.146 3020.97 344.354 3020.97 349.562C3021.62 354.771 3021.3 359.979 3020 365.188C3018.04 377.557 3015.11 390.904 3011.21 405.227C3007.3 418.898 3003.72 432.57 3000.46 446.242C2999.16 454.055 2998.51 462.193 2998.51 470.656C2999.16 478.469 2998.51 485.305 2996.56 491.164C2995.26 497.023 2992.65 502.557 2988.75 507.766C2985.49 512.974 2982.24 518.508 2978.98 524.367C2976.38 529.576 2974.42 535.435 2973.12 541.945C2972.47 547.805 2974.1 554.315 2978 561.477C2976.05 585.565 2972.8 609.979 2968.24 634.719C2963.68 659.458 2957.82 683.221 2950.66 706.008C2948.71 713.169 2945.45 722.609 2940.89 734.328C2936.99 746.047 2933.08 753.534 2929.18 756.789C2925.27 760.044 2920.06 761.997 2913.55 762.648C2907.69 763.951 2901.51 763.951 2895 762.648C2889.14 761.346 2883.6 759.068 2878.39 755.812C2873.19 752.557 2869.61 748.651 2867.65 744.094C2863.75 746.698 2860.17 750.279 2856.91 754.836C2854.31 759.393 2850.4 762.974 2845.19 765.578C2838.68 768.833 2831.85 770.135 2824.68 769.484C2818.17 768.833 2811.34 770.135 2804.18 773.391C2797.67 775.995 2791.81 778.924 2786.6 782.18C2781.39 786.086 2776.18 788.69 2770.97 789.992C2767.72 791.294 2764.46 791.62 2761.21 790.969C2758.6 790.969 2756 791.62 2753.39 792.922C2749.49 794.875 2746.56 798.13 2744.61 802.688C2742.65 807.245 2739.72 810.826 2735.82 813.43C2730.61 812.128 2724.75 811.151 2718.24 810.5C2711.73 810.5 2706.85 808.872 2703.59 805.617C2702.29 788.69 2704.89 773.716 2711.4 760.695C2717.91 748.326 2722.8 735.956 2726.05 723.586C2728.65 716.424 2730.28 709.589 2730.93 703.078C2732.24 696.568 2733.54 689.081 2734.84 680.617C2737.44 671.503 2740.7 662.062 2744.61 652.297C2748.51 641.88 2751.44 631.464 2753.39 621.047C2755.35 613.885 2756.32 606.724 2756.32 599.562C2756.98 591.75 2758.6 584.263 2761.21 577.102C2762.51 571.893 2765.76 566.359 2770.97 560.5C2776.18 553.99 2780.09 547.154 2782.69 539.992C2785.3 532.831 2787.57 524.693 2789.53 515.578C2791.48 506.464 2794.08 497.674 2797.34 489.211C2800.6 478.143 2805.15 468.703 2811.01 460.891C2817.52 453.078 2820.45 444.289 2819.8 434.523C2819.8 429.966 2818.82 426.385 2816.87 423.781C2814.92 421.177 2813.94 418.247 2813.94 414.992C2813.29 409.784 2813.94 402.622 2815.89 393.508C2817.85 384.393 2819.8 376.255 2821.75 369.094C2825.01 355.422 2828.26 343.052 2831.52 331.984C2834.77 320.917 2838.03 309.849 2841.29 298.781C2842.59 293.573 2843.56 288.69 2844.21 284.133C2845.52 278.924 2846.82 274.367 2848.12 270.461C2849.42 265.253 2851.38 261.021 2853.98 257.766C2857.24 253.859 2859.51 249.953 2860.82 246.047C2862.12 241.49 2863.1 235.956 2863.75 229.445C2865.05 222.935 2866.68 216.75 2868.63 210.891C2870.58 206.333 2872.54 202.102 2874.49 198.195C2877.09 194.289 2878.72 190.383 2879.37 186.477C2880.67 178.013 2879.37 170.201 2875.46 163.039C2872.21 155.878 2870.58 148.391 2870.58 140.578C2863.42 135.37 2854.96 132.44 2845.19 131.789C2835.43 130.487 2825.99 130.161 2816.87 130.812C2807.76 131.464 2799.62 132.115 2792.46 132.766C2785.3 132.766 2777.16 133.091 2768.04 133.742C2753.07 134.393 2740.05 135.695 2728.98 137.648C2717.91 139.602 2707.17 141.555 2696.75 143.508C2686.99 145.461 2676.9 147.089 2666.48 148.391C2656.06 149.042 2644.35 149.042 2631.32 148.391C2632.63 141.229 2633.6 133.742 2634.25 125.93C2634.25 117.466 2635.23 110.63 2637.18 105.422C2641.09 102.167 2645 100.539 2648.9 100.539C2652.81 99.888 2657.04 99.237 2661.6 98.5859C2658.99 94.6797 2657.69 91.099 2657.69 87.8438C2658.34 84.5885 2658.99 81.6589 2659.64 79.0547C2660.95 75.7995 2662.25 72.8698 2663.55 70.2656C2665.5 67.0104 2666.81 64.0807 2667.46 61.4766C2668.76 54.9661 2669.08 48.4557 2668.43 41.9453C2668.43 35.4349 2671.36 30.2266 2677.22 26.3203C2686.34 25.6693 2694.48 25.6693 2701.64 26.3203C2708.8 26.9714 2715.63 27.9479 2722.14 29.25C2728.65 29.901 2735.17 30.5521 2741.68 31.2031C2748.84 31.8542 2756.98 31.8542 2766.09 31.2031C2786.92 29.901 2803.85 28.2734 2816.87 26.3203C2830.54 24.3672 2847.14 23.0651 2866.68 22.4141C2880.35 22.4141 2893.37 22.7396 2905.74 23.3906C2918.76 23.3906 2930.8 24.0417 2941.87 25.3438C2953.59 27.2969 2962.05 28.2734 2967.26 28.2734C2973.12 28.2734 2978.33 28.2734 2982.89 28.2734C2987.44 27.6224 2992.33 26.9714 2997.54 26.3203C3002.74 25.6693 3010.56 25.3438 3020.97 25.3438C3032.04 25.3438 3042.46 24.6927 3052.22 23.3906C3062.64 21.4375 3073.38 20.7865 3084.45 21.4375C3096.82 21.4375 3105.28 22.4141 3109.84 24.3672C3115.05 25.6693 3119.28 26.9714 3122.54 28.2734C3125.79 29.5755 3129.37 30.8776 3133.28 32.1797C3137.18 32.8307 3144.35 32.5052 3154.76 31.2031C3161.92 29.901 3166.48 28.599 3168.43 27.2969C3170.39 25.3438 3174.94 23.7161 3182.11 22.4141C3188.62 21.763 3195.13 21.763 3201.64 22.4141C3208.15 22.4141 3214.98 22.0885 3222.14 21.4375C3241.68 19.4844 3261.21 16.2292 3280.74 11.6719C3300.92 6.46354 3321.43 5.16146 3342.26 7.76562Z"/>
  
  <path d="M4061.99 30.2266C4051.57 35.4349 4041.15 39.6667 4030.74 42.9219C4020.97 45.526 4010.88 48.4557 4000.46 51.7109C3989.4 54.9661 3978.33 57.2448 3967.26 58.5469C3956.85 59.849 3946.1 63.1042 3935.04 68.3125C3924.62 73.5208 3913.88 82.6354 3902.81 95.6562C3892.39 108.026 3883.28 120.07 3875.46 131.789C3857.89 157.831 3840.31 182.896 3822.73 206.984C3805.15 231.073 3787.57 255.812 3770 281.203C3760.88 294.224 3753.07 307.896 3746.56 322.219C3740.7 335.891 3733.21 348.911 3724.1 361.281C3720.84 365.188 3716.94 368.768 3712.38 372.023C3708.47 375.279 3705.22 378.534 3702.61 381.789C3698.71 388.951 3696.1 396.112 3694.8 403.273C3693.5 410.435 3691.22 417.271 3687.96 423.781C3684.71 430.943 3680.8 436.802 3676.25 441.359C3672.34 445.266 3669.41 450.474 3667.46 456.984C3657.04 468.052 3647.6 480.096 3639.14 493.117C3631.32 506.138 3622.86 520.786 3613.75 537.062C3609.84 543.573 3604.96 550.409 3599.1 557.57C3593.89 564.732 3590.63 571.242 3589.33 577.102C3588.03 580.357 3587.7 583.286 3588.36 585.891C3589.66 588.495 3589.98 591.424 3589.33 594.68C3588.03 599.237 3585.1 604.771 3580.54 611.281C3575.99 617.792 3572.08 623.651 3568.82 628.859C3564.27 634.068 3560.04 639.276 3556.13 644.484C3552.22 649.693 3548.64 654.901 3545.39 660.109C3536.27 671.828 3527.48 683.872 3519.02 696.242C3511.21 707.961 3502.42 717.401 3492.65 724.562C3486.14 729.12 3479.63 732.701 3473.12 735.305C3466.61 737.909 3461.08 741.49 3456.52 746.047C3453.92 748.651 3451.64 751.581 3449.68 754.836C3448.38 758.091 3446.43 761.346 3443.82 764.602C3437.31 771.763 3430.15 778.924 3422.34 786.086C3414.53 793.898 3407.04 800.083 3399.88 804.641C3390.76 811.151 3381.98 813.104 3373.51 810.5C3365.05 807.896 3356.58 803.339 3348.12 796.828C3344.21 793.573 3340.96 789.341 3338.36 784.133C3335.75 778.924 3332.82 775.018 3329.57 772.414C3326.31 769.159 3322.4 767.531 3317.85 767.531C3313.29 768.182 3309.38 767.531 3306.13 765.578C3300.92 762.974 3296.36 759.719 3292.46 755.812C3288.55 751.906 3283.02 749.302 3275.86 748C3274.55 736.932 3270.97 727.492 3265.11 719.68C3259.25 711.867 3255.67 703.404 3254.37 694.289C3252.42 683.221 3252.09 672.154 3253.39 661.086C3255.35 649.367 3255.67 637.974 3254.37 626.906C3253.07 619.745 3251.12 612.909 3248.51 606.398C3246.56 599.237 3244.93 592.076 3243.63 584.914C3242.33 577.753 3241.02 570.266 3239.72 562.453C3239.07 554.641 3238.1 547.154 3236.79 539.992C3234.19 530.227 3230.93 520.786 3227.03 511.672C3223.77 501.906 3221.49 492.141 3220.19 482.375C3218.89 473.26 3218.56 463.495 3219.21 453.078C3220.52 442.661 3221.17 431.919 3221.17 420.852C3220.52 411.737 3220.19 401.971 3220.19 391.555C3220.19 380.487 3220.84 370.396 3222.14 361.281C3222.8 358.026 3223.45 354.445 3224.1 350.539C3225.4 346.633 3225.73 343.052 3225.07 339.797C3225.07 332.635 3221.82 324.497 3215.31 315.383C3209.45 305.617 3206.19 295.526 3205.54 285.109C3205.54 274.042 3206.19 262.974 3207.5 251.906C3208.8 240.188 3209.12 228.469 3208.47 216.75C3207.82 206.333 3206.85 195.917 3205.54 185.5C3204.24 174.432 3203.92 163.69 3204.57 153.273C3204.57 144.159 3204.89 136.346 3205.54 129.836C3206.85 123.326 3206.85 116.49 3205.54 109.328C3204.24 100.865 3201.64 91.4245 3197.73 81.0078C3194.48 70.5911 3196.1 58.8724 3202.61 45.8516C3209.77 41.2943 3220.19 36.4115 3233.86 31.2031C3248.19 25.9948 3262.83 22.0885 3277.81 19.4844C3293.43 16.8802 3307.76 16.5547 3320.78 18.5078C3334.45 19.8099 3344.21 24.6927 3350.07 33.1562C3353.98 38.3646 3356.91 45.2005 3358.86 53.6641C3360.82 61.4766 3361.79 70.2656 3361.79 80.0312C3362.44 89.1458 3362.12 98.5859 3360.82 108.352C3360.17 117.466 3358.54 125.93 3355.93 133.742C3354.63 138.951 3352.03 144.484 3348.12 150.344C3344.87 155.552 3341.61 161.086 3338.36 166.945C3335.75 172.154 3334.12 177.362 3333.47 182.57C3332.82 187.128 3335.1 191.359 3340.31 195.266C3335.1 204.38 3334.12 213.169 3337.38 221.633C3341.29 229.445 3343.89 237.583 3345.19 246.047C3345.84 250.604 3345.19 255.487 3343.24 260.695C3341.94 265.253 3341.29 270.135 3341.29 275.344C3341.29 306.594 3342.59 338.495 3345.19 371.047C3347.8 402.948 3351.7 432.896 3356.91 460.891C3358.21 468.052 3360.17 474.888 3362.77 481.398C3366.02 487.909 3368.3 494.419 3369.61 500.93C3370.91 510.695 3371.23 520.135 3370.58 529.25C3370.58 538.365 3371.23 547.479 3372.54 556.594C3373.84 565.708 3374.49 574.497 3374.49 582.961C3375.14 591.424 3376.12 599.237 3377.42 606.398C3379.37 613.56 3381.65 620.396 3384.25 626.906C3387.51 632.766 3392.72 637.648 3399.88 641.555C3404.44 637.648 3407.37 633.091 3408.67 627.883C3410.62 622.674 3411.92 617.141 3412.57 611.281C3413.23 605.422 3413.88 599.562 3414.53 593.703C3415.83 587.844 3418.11 582.31 3421.36 577.102C3425.92 569.289 3429.83 561.477 3433.08 553.664C3434.38 549.758 3435.04 545.852 3435.04 541.945C3435.69 537.388 3436.66 532.831 3437.96 528.273C3439.92 521.763 3443.5 514.927 3448.71 507.766C3453.92 499.953 3458.15 492.466 3461.4 485.305C3465.31 477.492 3468.56 469.68 3471.17 461.867C3474.42 453.404 3478 445.917 3481.91 439.406C3487.12 430.292 3492.98 421.828 3499.49 414.016C3506.65 406.203 3512.83 397.74 3518.04 388.625C3521.95 381.464 3525.2 373.977 3527.81 366.164C3531.06 358.352 3534.64 350.865 3538.55 343.703C3541.81 337.844 3546.36 332.635 3552.22 328.078C3558.08 322.87 3561.66 316.685 3562.96 309.523C3568.82 309.523 3573.71 308.547 3577.61 306.594C3581.52 304.641 3585.43 302.362 3589.33 299.758C3590.63 289.992 3593.56 281.203 3598.12 273.391C3602.68 265.578 3606.91 257.44 3610.82 248.977C3614.07 240.513 3616.02 231.724 3616.68 222.609C3617.98 212.844 3620.58 203.404 3624.49 194.289C3625.79 190.383 3628.39 186.477 3632.3 182.57C3636.86 178.013 3641.42 173.13 3645.97 167.922C3649.23 164.667 3651.83 161.086 3653.79 157.18C3655.74 152.622 3658.02 149.042 3660.62 146.438C3663.23 142.531 3666.15 138.951 3669.41 135.695C3673.32 132.44 3676.9 129.185 3680.15 125.93C3688.62 114.862 3696.1 101.516 3702.61 85.8906C3709.12 70.2656 3716.29 56.9193 3724.1 45.8516C3732.56 35.4349 3743.3 28.2734 3756.32 24.3672C3769.35 20.4609 3784.32 17.5312 3801.25 15.5781C3818.17 14.276 3833.8 14.9271 3848.12 17.5312C3863.1 20.1354 3878.39 21.763 3894.02 22.4141C3901.18 22.4141 3908.02 21.4375 3914.53 19.4844C3921.04 17.5312 3927.87 15.9036 3935.04 14.6016C3946.1 13.2995 3957.17 12.974 3968.24 13.625C3979.31 13.625 3990.05 13.2995 4000.46 12.6484C4005.67 11.9974 4011.86 11.0208 4019.02 9.71875C4026.18 7.76562 4032.69 6.78906 4038.55 6.78906C4045.06 6.78906 4050.6 8.41667 4055.15 11.6719C4059.71 14.276 4061.99 20.4609 4061.99 30.2266Z"/>
</svg>
