<svg viewBox="0 0 3000 3000" fill="none" xmlns="http://www.w3.org/2000/svg">
    <path d="M1557.57 2170.42C1557.34 2171.56 1557.22 2172.81 1557.22 2174.18C1557.22 2175.32 1557.11 2176.46 1556.88 2177.6C1555.06 2179.19 1553.46 2180.22 1552.1 2180.67C1550.96 2181.13 1549.93 2182.27 1549.02 2184.09C1548.34 2185.23 1548 2186.48 1548 2187.85C1548 2189.22 1547.65 2190.47 1546.97 2191.61C1546.29 2193.2 1544.58 2194.91 1541.84 2196.74C1539.34 2198.33 1537.51 2199.36 1536.38 2199.81C1535.01 2200.5 1533.53 2201.07 1531.93 2201.52C1530.56 2201.98 1529.2 2202.55 1527.83 2203.23C1525.78 2204.14 1524.07 2204.83 1522.7 2205.28C1521.56 2205.74 1520.31 2206.08 1518.94 2206.31C1517.58 2206.31 1516.1 2206.42 1514.5 2206.65C1512.9 2206.65 1510.85 2206.88 1508.35 2207.33C1507.66 2207.33 1507.21 2207.56 1506.98 2208.02C1506.75 2208.24 1506.3 2208.59 1505.61 2209.04C1504.93 2209.5 1503.9 2209.95 1502.54 2210.41C1501.17 2210.64 1499.12 2210.86 1496.38 2211.09C1493.88 2211.32 1491.94 2211.55 1490.57 2211.78C1489.43 2211.78 1487.5 2212 1484.76 2212.46C1483.17 2212.91 1481.69 2213.6 1480.32 2214.51C1478.95 2215.42 1477.47 2216.22 1475.88 2216.9C1472.69 2218.73 1470.29 2220.55 1468.7 2222.37C1467.33 2223.97 1466.19 2225.45 1465.28 2226.81C1463.91 2229.09 1463.23 2231.71 1463.23 2234.68C1463.46 2237.41 1463 2240.37 1461.86 2243.56C1460.95 2245.84 1459.47 2248.12 1457.42 2250.4C1455.37 2252.68 1453.89 2255.07 1452.98 2257.58C1452.75 2258.72 1452.75 2259.97 1452.98 2261.34C1453.2 2262.7 1453.2 2264.18 1452.98 2265.78C1452.52 2268.74 1451.5 2271.82 1449.9 2275.01C1448.31 2277.97 1446.94 2281.16 1445.8 2284.58C1445.34 2286.4 1445.12 2288.22 1445.12 2290.05C1445.34 2291.87 1445.23 2293.69 1444.77 2295.52C1444.09 2299.85 1443.06 2304.52 1441.7 2309.53C1440.33 2314.31 1439.08 2319.1 1437.94 2323.88C1437.48 2326.62 1437.25 2329.47 1437.25 2332.43C1437.48 2335.16 1437.25 2337.56 1436.57 2339.61C1436.11 2341.66 1435.2 2343.6 1433.84 2345.42C1432.7 2347.24 1431.56 2349.18 1430.42 2351.23C1429.51 2353.05 1428.82 2355.1 1428.37 2357.38C1428.14 2359.43 1428.71 2361.71 1430.08 2364.22C1429.39 2372.65 1428.25 2381.19 1426.66 2389.85C1425.06 2398.51 1423.01 2406.83 1420.51 2414.8C1419.82 2417.31 1418.68 2420.61 1417.09 2424.71C1415.72 2428.82 1414.35 2431.44 1412.99 2432.58C1411.62 2433.72 1409.8 2434.4 1407.52 2434.63C1405.47 2435.08 1403.3 2435.08 1401.02 2434.63C1398.97 2434.17 1397.04 2433.37 1395.21 2432.23C1393.39 2431.1 1392.14 2429.73 1391.45 2428.13C1390.09 2429.04 1388.83 2430.3 1387.69 2431.89C1386.78 2433.49 1385.41 2434.74 1383.59 2435.65C1381.31 2436.79 1378.92 2437.25 1376.41 2437.02C1374.14 2436.79 1371.74 2437.25 1369.24 2438.39C1366.96 2439.3 1364.91 2440.32 1363.08 2441.46C1361.26 2442.83 1359.44 2443.74 1357.62 2444.2C1356.48 2444.65 1355.34 2444.77 1354.2 2444.54C1353.29 2444.54 1352.37 2444.77 1351.46 2445.22C1350.1 2445.91 1349.07 2447.05 1348.39 2448.64C1347.7 2450.24 1346.68 2451.49 1345.31 2452.4C1343.49 2451.94 1341.44 2451.6 1339.16 2451.38C1336.88 2451.38 1335.17 2450.81 1334.03 2449.67C1333.58 2443.74 1334.49 2438.5 1336.77 2433.94C1339.04 2429.61 1340.75 2425.28 1341.89 2420.96C1342.8 2418.45 1343.37 2416.06 1343.6 2413.78C1344.06 2411.5 1344.51 2408.88 1344.97 2405.92C1345.88 2402.73 1347.02 2399.42 1348.39 2396C1349.75 2392.36 1350.78 2388.71 1351.46 2385.07C1352.15 2382.56 1352.49 2380.05 1352.49 2377.55C1352.72 2374.81 1353.29 2372.19 1354.2 2369.69C1354.65 2367.86 1355.79 2365.93 1357.62 2363.88C1359.44 2361.6 1360.81 2359.2 1361.72 2356.7C1362.63 2354.19 1363.43 2351.34 1364.11 2348.15C1364.79 2344.96 1365.7 2341.89 1366.84 2338.92C1367.98 2335.05 1369.58 2331.75 1371.63 2329.01C1373.91 2326.28 1374.93 2323.2 1374.71 2319.78C1374.71 2318.19 1374.36 2316.93 1373.68 2316.02C1373 2315.11 1372.65 2314.09 1372.65 2312.95C1372.43 2311.12 1372.65 2308.62 1373.34 2305.43C1374.02 2302.24 1374.71 2299.39 1375.39 2296.88C1376.53 2292.1 1377.67 2287.77 1378.81 2283.89C1379.95 2280.02 1381.09 2276.15 1382.22 2272.27C1382.68 2270.45 1383.02 2268.74 1383.25 2267.15C1383.71 2265.32 1384.16 2263.73 1384.62 2262.36C1385.07 2260.54 1385.76 2259.06 1386.67 2257.92C1387.81 2256.55 1388.6 2255.18 1389.06 2253.82C1389.52 2252.22 1389.86 2250.28 1390.09 2248.01C1390.54 2245.73 1391.11 2243.56 1391.79 2241.51C1392.48 2239.92 1393.16 2238.44 1393.85 2237.07C1394.76 2235.7 1395.33 2234.33 1395.55 2232.97C1396.01 2230 1395.55 2227.27 1394.19 2224.76C1393.05 2222.26 1392.48 2219.64 1392.48 2216.9C1389.97 2215.08 1387.01 2214.05 1383.59 2213.83C1380.17 2213.37 1376.87 2213.26 1373.68 2213.48C1370.49 2213.71 1367.64 2213.94 1365.13 2214.17C1362.63 2214.17 1359.78 2214.28 1356.59 2214.51C1351.35 2214.74 1346.79 2215.19 1342.92 2215.88C1339.04 2216.56 1335.28 2217.24 1331.64 2217.93C1328.22 2218.61 1324.69 2219.18 1321.04 2219.64C1317.4 2219.86 1313.3 2219.86 1308.74 2219.64C1309.19 2217.13 1309.54 2214.51 1309.76 2211.78C1309.76 2208.81 1310.11 2206.42 1310.79 2204.6C1312.16 2203.46 1313.52 2202.89 1314.89 2202.89C1316.26 2202.66 1317.74 2202.43 1319.33 2202.21C1318.42 2200.84 1317.97 2199.58 1317.97 2198.45C1318.19 2197.31 1318.42 2196.28 1318.65 2195.37C1319.11 2194.23 1319.56 2193.2 1320.02 2192.29C1320.7 2191.15 1321.16 2190.13 1321.38 2189.22C1321.84 2186.94 1321.95 2184.66 1321.73 2182.38C1321.73 2180.1 1322.75 2178.28 1324.8 2176.91C1327.99 2176.68 1330.84 2176.68 1333.35 2176.91C1335.85 2177.14 1338.25 2177.48 1340.53 2177.94C1342.8 2178.17 1345.08 2178.39 1347.36 2178.62C1349.87 2178.85 1352.72 2178.85 1355.91 2178.62C1363.2 2178.17 1369.12 2177.6 1373.68 2176.91C1378.46 2176.23 1384.28 2175.77 1391.11 2175.54C1395.9 2175.54 1400.45 2175.66 1404.78 2175.89C1409.34 2175.89 1413.56 2176.11 1417.43 2176.57C1421.53 2177.25 1424.49 2177.6 1426.32 2177.6C1428.37 2177.6 1430.19 2177.6 1431.79 2177.6C1433.38 2177.37 1435.09 2177.14 1436.91 2176.91C1438.74 2176.68 1441.47 2176.57 1445.12 2176.57C1448.99 2176.57 1452.63 2176.34 1456.05 2175.89C1459.7 2175.2 1463.46 2174.98 1467.33 2175.2C1471.66 2175.2 1474.62 2175.54 1476.22 2176.23C1478.04 2176.68 1479.52 2177.14 1480.66 2177.6C1481.8 2178.05 1483.05 2178.51 1484.42 2178.96C1485.79 2179.19 1488.3 2179.08 1491.94 2178.62C1494.45 2178.17 1496.04 2177.71 1496.73 2177.25C1497.41 2176.57 1499.01 2176 1501.51 2175.54C1503.79 2175.32 1506.07 2175.32 1508.35 2175.54C1510.63 2175.54 1513.02 2175.43 1515.53 2175.2C1522.36 2174.52 1529.2 2173.38 1536.03 2171.79C1543.1 2169.96 1550.27 2169.51 1557.57 2170.42Z" />
    <path d="M1809.47 2178.28C1805.82 2180.1 1802.18 2181.58 1798.53 2182.72C1795.12 2183.63 1791.58 2184.66 1787.94 2185.8C1784.06 2186.94 1780.19 2187.74 1776.32 2188.19C1772.67 2188.65 1768.91 2189.79 1765.04 2191.61C1761.39 2193.43 1757.63 2196.62 1753.76 2201.18C1750.11 2205.51 1746.92 2209.72 1744.19 2213.83C1738.04 2222.94 1731.88 2231.71 1725.73 2240.14C1719.58 2248.58 1713.43 2257.23 1707.27 2266.12C1704.08 2270.68 1701.35 2275.46 1699.07 2280.48C1697.02 2285.26 1694.4 2289.82 1691.21 2294.15C1690.07 2295.52 1688.7 2296.77 1687.11 2297.91C1685.74 2299.05 1684.6 2300.19 1683.69 2301.33C1682.32 2303.83 1681.41 2306.34 1680.96 2308.85C1680.5 2311.35 1679.7 2313.74 1678.56 2316.02C1677.42 2318.53 1676.06 2320.58 1674.46 2322.18C1673.09 2323.54 1672.07 2325.37 1671.38 2327.64C1667.74 2331.52 1664.43 2335.73 1661.47 2340.29C1658.74 2344.85 1655.78 2349.98 1652.59 2355.67C1651.22 2357.95 1649.51 2360.34 1647.46 2362.85C1645.64 2365.36 1644.5 2367.63 1644.04 2369.69C1643.59 2370.82 1643.47 2371.85 1643.7 2372.76C1644.15 2373.67 1644.27 2374.7 1644.04 2375.84C1643.59 2377.43 1642.56 2379.37 1640.96 2381.65C1639.37 2383.93 1638 2385.98 1636.86 2387.8C1635.27 2389.62 1633.79 2391.45 1632.42 2393.27C1631.05 2395.09 1629.8 2396.92 1628.66 2398.74C1625.47 2402.84 1622.39 2407.06 1619.43 2411.38C1616.7 2415.49 1613.62 2418.79 1610.2 2421.3C1607.92 2422.89 1605.65 2424.15 1603.37 2425.06C1601.09 2425.97 1599.15 2427.22 1597.56 2428.82C1596.65 2429.73 1595.85 2430.75 1595.16 2431.89C1594.71 2433.03 1594.02 2434.17 1593.11 2435.31C1590.83 2437.82 1588.33 2440.32 1585.59 2442.83C1582.86 2445.56 1580.24 2447.73 1577.73 2449.32C1574.54 2451.6 1571.47 2452.29 1568.5 2451.38C1565.54 2450.46 1562.58 2448.87 1559.62 2446.59C1558.25 2445.45 1557.11 2443.97 1556.2 2442.15C1555.29 2440.32 1554.26 2438.96 1553.12 2438.04C1551.98 2436.91 1550.62 2436.34 1549.02 2436.34C1547.43 2436.56 1546.06 2436.34 1544.92 2435.65C1543.1 2434.74 1541.5 2433.6 1540.13 2432.23C1538.77 2430.87 1536.83 2429.96 1534.32 2429.5C1533.87 2425.63 1532.62 2422.32 1530.56 2419.59C1528.51 2416.85 1527.26 2413.89 1526.8 2410.7C1526.12 2406.83 1526.01 2402.95 1526.46 2399.08C1527.15 2394.98 1527.26 2390.99 1526.8 2387.12C1526.35 2384.61 1525.67 2382.22 1524.75 2379.94C1524.07 2377.43 1523.5 2374.93 1523.04 2372.42C1522.59 2369.91 1522.13 2367.29 1521.68 2364.56C1521.45 2361.82 1521.11 2359.2 1520.65 2356.7C1519.74 2353.28 1518.6 2349.98 1517.23 2346.79C1516.1 2343.37 1515.3 2339.95 1514.84 2336.53C1514.39 2333.34 1514.27 2329.92 1514.5 2326.28C1514.96 2322.63 1515.18 2318.87 1515.18 2315C1514.96 2311.81 1514.84 2308.39 1514.84 2304.74C1514.84 2300.87 1515.07 2297.34 1515.53 2294.15C1515.75 2293.01 1515.98 2291.76 1516.21 2290.39C1516.66 2289.02 1516.78 2287.77 1516.55 2286.63C1516.55 2284.12 1515.41 2281.27 1513.13 2278.08C1511.08 2274.67 1509.94 2271.13 1509.71 2267.49C1509.71 2263.61 1509.94 2259.74 1510.4 2255.87C1510.85 2251.77 1510.97 2247.66 1510.74 2243.56C1510.51 2239.92 1510.17 2236.27 1509.71 2232.62C1509.26 2228.75 1509.15 2224.99 1509.37 2221.35C1509.37 2218.16 1509.49 2215.42 1509.71 2213.14C1510.17 2210.86 1510.17 2208.47 1509.71 2205.96C1509.26 2203 1508.35 2199.7 1506.98 2196.05C1505.84 2192.41 1506.41 2188.31 1508.69 2183.75C1511.2 2182.15 1514.84 2180.44 1519.63 2178.62C1524.64 2176.8 1529.77 2175.43 1535.01 2174.52C1540.48 2173.61 1545.49 2173.49 1550.05 2174.18C1554.83 2174.63 1558.25 2176.34 1560.3 2179.3C1561.67 2181.13 1562.69 2183.52 1563.38 2186.48C1564.06 2189.22 1564.4 2192.29 1564.4 2195.71C1564.63 2198.9 1564.52 2202.21 1564.06 2205.62C1563.83 2208.81 1563.26 2211.78 1562.35 2214.51C1561.9 2216.33 1560.98 2218.27 1559.62 2220.32C1558.48 2222.14 1557.34 2224.08 1556.2 2226.13C1555.29 2227.95 1554.72 2229.78 1554.49 2231.6C1554.26 2233.19 1555.06 2234.68 1556.88 2236.04C1555.06 2239.23 1554.72 2242.31 1555.86 2245.27C1557.22 2248.01 1558.14 2250.85 1558.59 2253.82C1558.82 2255.41 1558.59 2257.12 1557.91 2258.94C1557.45 2260.54 1557.22 2262.25 1557.22 2264.07C1557.22 2275.01 1557.68 2286.17 1558.59 2297.57C1559.5 2308.73 1560.87 2319.21 1562.69 2329.01C1563.15 2331.52 1563.83 2333.91 1564.74 2336.19C1565.88 2338.47 1566.68 2340.75 1567.14 2343.03C1567.59 2346.44 1567.71 2349.75 1567.48 2352.94C1567.48 2356.13 1567.71 2359.32 1568.16 2362.51C1568.62 2365.7 1568.85 2368.77 1568.85 2371.74C1569.07 2374.7 1569.42 2377.43 1569.87 2379.94C1570.55 2382.45 1571.35 2384.84 1572.26 2387.12C1573.4 2389.17 1575.23 2390.88 1577.73 2392.24C1579.33 2390.88 1580.35 2389.28 1580.81 2387.46C1581.49 2385.64 1581.95 2383.7 1582.18 2381.65C1582.4 2379.6 1582.63 2377.55 1582.86 2375.5C1583.32 2373.45 1584.11 2371.51 1585.25 2369.69C1586.85 2366.95 1588.21 2364.22 1589.35 2361.48C1589.81 2360.12 1590.04 2358.75 1590.04 2357.38C1590.26 2355.79 1590.61 2354.19 1591.06 2352.6C1591.75 2350.32 1593 2347.92 1594.82 2345.42C1596.65 2342.68 1598.13 2340.06 1599.27 2337.56C1600.63 2334.82 1601.77 2332.09 1602.68 2329.35C1603.82 2326.39 1605.08 2323.77 1606.44 2321.49C1608.27 2318.3 1610.32 2315.34 1612.6 2312.61C1615.1 2309.87 1617.27 2306.91 1619.09 2303.72C1620.46 2301.21 1621.6 2298.59 1622.51 2295.86C1623.65 2293.12 1624.9 2290.5 1626.27 2288C1627.41 2285.95 1629 2284.12 1631.05 2282.53C1633.1 2280.7 1634.36 2278.54 1634.81 2276.03C1636.86 2276.03 1638.57 2275.69 1639.94 2275.01C1641.31 2274.32 1642.67 2273.53 1644.04 2272.62C1644.5 2269.2 1645.52 2266.12 1647.12 2263.39C1648.71 2260.65 1650.19 2257.8 1651.56 2254.84C1652.7 2251.88 1653.38 2248.8 1653.61 2245.61C1654.07 2242.2 1654.98 2238.89 1656.35 2235.7C1656.8 2234.33 1657.71 2232.97 1659.08 2231.6C1660.68 2230 1662.27 2228.3 1663.87 2226.47C1665 2225.33 1665.92 2224.08 1666.6 2222.71C1667.28 2221.12 1668.08 2219.86 1668.99 2218.95C1669.9 2217.59 1670.93 2216.33 1672.07 2215.19C1673.44 2214.05 1674.69 2212.91 1675.83 2211.78C1678.79 2207.9 1681.41 2203.23 1683.69 2197.76C1685.97 2192.29 1688.47 2187.62 1691.21 2183.75C1694.17 2180.1 1697.93 2177.6 1702.49 2176.23C1707.05 2174.86 1712.29 2173.84 1718.21 2173.15C1724.14 2172.7 1729.6 2172.92 1734.62 2173.84C1739.86 2174.75 1745.21 2175.32 1750.68 2175.54C1753.19 2175.54 1755.58 2175.2 1757.86 2174.52C1760.14 2173.84 1762.53 2173.27 1765.04 2172.81C1768.91 2172.35 1772.78 2172.24 1776.66 2172.47C1780.53 2172.47 1784.29 2172.35 1787.94 2172.13C1789.76 2171.9 1791.93 2171.56 1794.43 2171.1C1796.94 2170.42 1799.22 2170.08 1801.27 2170.08C1803.55 2170.08 1805.48 2170.65 1807.08 2171.79C1808.67 2172.7 1809.47 2174.86 1809.47 2178.28Z" />
    <path d="M877.5 378.5L948.5 306.5L1028.5 245L1077 218L1128 194L1175 175L1246.5 151.5L1325.5 135H1574L1680 151.5L1769 184.5L1866 228L1963 289L2042 358.5L2116 433.5L2183.5 521.5L2228 614.5L2263.5 729L2291 843.5V1025.5L2270.5 1134L2223 1257L2175.5 1337L2102 1423L2006.5 1498L1900.5 1538L1791.5 1567.5L1762 1597.5L1745 1623.5L1732 1648L1730.5 1703H1799.5L1856.5 1715L1882.5 1725L1919 1745.5L1957 1776.5L1976.5 1818.5L1997.5 1877L2017 1939L2035.5 2005.5L2071.5 2109L2100.5 2195L2111 2226.5L2182.5 2179.5L2261 2124L2323.5 2093L2377.5 2068L2401.5 2055L2451.5 2060.5L2500.5 2079L2558 2102.5L2595 2131L2602 2136.5V2171L2584 2184V2204L2592 2218L2616.5 2240.5L2647 2278.5L2670.5 2320L2684 2346.5V2412.5L2677.5 2429L2657.5 2455L2642 2469.5H2536L2483.5 2447L2422.5 2419.5L2390 2391L2375 2384.5L2355.5 2402L2327.5 2426.5L2292 2453L2252 2481L2212.5 2512.5L2177 2531.5L2144.5 2550L2111 2561L2095.5 2567H2071.5L2048 2556L2007 2531.5L1973.5 2490L1947 2453L1919 2417.5V2518L1939.5 2544L1954 2659V2766.5L1960.5 2813.5L1967.5 2865.5H1919L1908.5 2806.5L1899 2715L1891.5 2645L1878 2591.5L1865 2512.5L1857 2447L1852 2375L1846.5 2300L1841.5 2274.5L1830.5 2249L1818.5 2226.5V2195H1846.5L1874.5 2209.5L1900 2244L1931 2304.5L1947 2363.5L1966.5 2410.5L2010 2476L2048 2508H2117.5L2180 2478L2234.5 2429.5L2292 2385L2327.5 2342.5L2341.5 2328L2351.5 2324L2364 2337.5L2382 2352L2401.5 2363L2459.5 2369L2483.5 2384.5L2525.5 2402.5L2568 2419.5H2616.5L2626.5 2412.5L2634.5 2406V2363L2626.5 2346.5L2606.5 2304L2563.5 2273.5L2530 2232L2504 2207.5L2492.5 2196.5V2171L2504 2161.5L2513.5 2153.5V2136.5L2480 2131L2434.5 2116L2394.5 2106.5L2351.5 2136.5L2303 2171L2237.5 2220.5L2144.5 2282L2071.5 2333H2043.5L2040 2316.5V2300L2048 2289H2054.5V2268L2048 2235L2040 2195L2017 2113L1994 2027.5L1967.5 1956L1952 1904L1932.5 1851.5L1906.5 1801.5L1869 1768L1814.5 1752.5L1723 1757.5L1711 1790.5L1682 1786.5L1677.5 1757.5V1650.5L1674 1590.5V1543L1711 1538L1751.5 1529.5L1791.5 1520.5L1900.5 1491L1994 1439L2062 1392L2116 1337L2195.5 1206L2223 1119L2243 1025.5L2237.5 833L2223 744.5L2195 643L2121 510.5L2034 410.5L1932.5 323.5L1810.5 263.5L1699 219L1574 194H1337L1225 212.5L1146.5 237L1087 258.5L1032 287.5L973 322L923 363L889.5 403L865 443L821 500.5L785.5 574.5L758 636.5L744.5 716L740 788V873L744.5 948.5L763.5 1043.5L783 1113L811.5 1182.5L835.5 1226L866 1268L897 1309.5L937.5 1351L978.5 1386L1025 1422L1072 1448L1122 1471.5L1168 1488.5L1228.5 1508L1367 1538L1411.5 1543L1448.5 1547L1458 1567.5L1454.5 1617L1448.5 1706.5L1444 1775.5L1435 1786.5L1425 1800.5H1402L1389.5 1790.5L1380.5 1771.5V1714L1344 1704H1290.5L1261 1712.5L1229 1729L1202 1746.5L1179 1771L1161 1794L1146.5 1820L1130.5 1851L1110 1909L1091 1957.5L1081.5 1988L1069 2027.5L1054 2073.5L1041.5 2116L1026.5 2161L1011.5 2210.5L1008 2241.5L1011.5 2259L999.5 2267H960L942 2256.5L913 2241.5L876.5 2223L834.5 2195.5L776.5 2161L736 2135L699 2109.5L659 2083.5L641.5 2073.5L624 2070L594.5 2078L581 2086.5L535.5 2092.5L471.5 2099.5L424 2107L402 2117.5L407.5 2128H456L485 2133.5V2155.5H520L525 2171.5L523 2190.5L500.5 2206.5L467.5 2240.5L435 2266.5L414 2288L390.5 2322L368.5 2359.5V2373.5L388.5 2384L446 2388.5L478.5 2376L523 2355.5L574.5 2331.5L616.5 2302.5L649.5 2283.5L672.5 2274.5L691 2298.5L717 2315L741.5 2336L777 2352.5L823.5 2386.5L883 2425.5L950.5 2460.5L1019 2487L1061.5 2510.5L1100 2529H1119L1127 2475.5L1133 2418L1140.5 2380L1149.5 2333.5L1156.5 2292L1163.5 2259L1170.5 2220.5L1179 2146.5L1185.5 2094.5L1197 2040L1206 2007.5L1229 2036L1244 2055.5L1236.5 2082L1228 2150L1214 2230.5L1207.5 2279L1197 2333.5L1189 2373.5L1183.5 2432.5L1167.5 2521L1160.5 2566.5L1154 2635L1120.5 2865.5H1067L1080.5 2769.5L1091 2699.5L1100 2642L1103.5 2615L1106.5 2580H1067L1039 2566.5L997.5 2548.5L953 2521L902.5 2493.5L850 2460.5L799.5 2423.5L754 2399L699 2366.5L675 2340.5H653.5L620.5 2359L582 2385.5L514 2415L456 2438.5H365.5L350.5 2429.5L330 2411L315 2393V2355.5L320 2344.5L333.5 2322L350.5 2295L365.5 2276.5L376.5 2258L394.5 2234.5L414 2221L429.5 2206.5L442 2197V2185.5L404.5 2182.5L374 2171.5L350.5 2159L336.5 2142V2102.5L352.5 2088.5L376.5 2073.5L411 2052L460.5 2034.5H641.5L689 2052L762 2086.5L813.5 2117L879 2154L920 2180L942 2195.5L960 2207L971.5 2192.5L984 2142.5L1002.5 2082L1018.5 2036L1032.5 1999L1047 1960.5L1063.5 1919L1078 1885.5L1110 1800.5L1130.5 1763.5L1146.5 1742L1168 1724.5L1207 1704L1245 1687.5L1285.5 1672L1322 1662L1380.5 1658.5V1597.5L1367 1584L1352 1580.5H1292.5L1228.5 1567.5L1168 1545L1091 1517L1032 1488.5L989 1458L941.5 1422L905.5 1392L844 1322L793.5 1252L755.5 1182.5L724 1105.5L703.5 1028L689.5 948.5V873L693 783L703 718.5L733.5 602.5L794.5 489.5L877.5 378.5Z" />
    <path d="M1038 743C1038 773.1 1017.5 807.5 991 802.5C964.5 808 942 774.5 942 735C942 704.9 968.647 682.5 993.5 682.5C1018.35 682.5 1045 700 1038 743Z" />
    <path d="M1912.5 742.5C1912.5 775.085 1901 801.5 1864 801.5C1841.5 808.5 1815.5 775.085 1815.5 742.5C1819 702.5 1837.21 683.5 1864 683.5C1903.5 683.5 1912.5 709.915 1912.5 742.5Z" />
    <path d="M1322.5 999.5H1527L1536 1009.5V1018.5L1527 1028.5H1515L1500.5 1033.5L1363 1042.5H1339L1318 1050.5L1305 1042.5L1293 1033.5L1297.5 1016L1313.5 1006.5L1322.5 999.5Z" />
    <path d="M2365.98 2123L2394.9 2077L2383.48 2123L2371.48 2160.51L2378.48 2189.01L2417.48 2233.51L2394.9 2219.01L2350.98 2180.51L2365.98 2123Z" />
</svg>
