<svg viewBox="0 0 300 300" fill="none" xmlns="http://www.w3.org/2000/svg">
<path fill-rule="evenodd" clip-rule="evenodd" d="M87.5 25C77.5544 25 68.0161 28.9509 60.9835 35.9835C53.9509 43.0161 50 52.5544 50 62.5V251.725C49.9989 255.01 50.8606 258.237 52.4988 261.084C54.1371 263.93 56.4944 266.297 59.3348 267.946C62.1752 269.595 65.399 270.47 68.6835 270.481C71.968 270.493 75.198 269.642 78.05 268.012L143.8 230.438C145.688 229.359 147.825 228.792 150 228.792C152.175 228.792 154.312 229.359 156.2 230.438L221.95 268.012C224.802 269.642 228.032 270.493 231.316 270.481C234.601 270.47 237.825 269.595 240.665 267.946C243.506 266.297 245.863 263.93 247.501 261.084C249.139 258.237 250.001 255.01 250 251.725V62.5C250 52.5544 246.049 43.0161 239.017 35.9835C231.984 28.9509 222.446 25 212.5 25H87.5Z"/>
</svg>
