<svg viewBox="0 0 300 300" fill="none" xmlns="http://www.w3.org/2000/svg">
<path fill-rule="evenodd" clip-rule="evenodd" d="M74.9976 100C72.5257 100.001 70.1095 100.734 68.0544 102.107C65.9992 103.481 64.3975 105.433 63.4516 107.717C62.5057 110.001 62.2582 112.513 62.7403 114.938C63.2224 117.362 64.4125 119.589 66.1601 121.337L141.16 196.337C143.504 198.681 146.683 199.997 149.998 199.997C153.312 199.997 156.491 198.681 158.835 196.337L233.835 121.337C235.583 119.589 236.773 117.362 237.255 114.938C237.737 112.513 237.489 110.001 236.544 107.717C235.598 105.433 233.996 103.481 231.941 102.107C229.886 100.734 227.469 100.001 224.998 100H74.9976Z" />
</svg>
