<svg viewBox="0 0 300 300" fill="none" xmlns="http://www.w3.org/2000/svg">
<path fill-rule="evenodd" clip-rule="evenodd" d="M150 50C106.463 50 74.25 69.7125 52.375 90.775C37.0522 105.653 24.3676 123.025 14.8625 142.15C13.6741 144.594 13.0566 147.276 13.0566 149.994C13.0566 152.711 13.6741 155.393 14.8625 157.837C24.3628 176.966 37.0432 194.343 52.3625 209.225C74.25 230.288 106.475 250 150 250C193.538 250 225.75 230.288 247.625 209.225C262.948 194.348 275.633 176.976 285.138 157.85C286.326 155.406 286.943 152.724 286.943 150.006C286.943 147.289 286.326 144.607 285.138 142.163C275.638 123.033 262.957 105.657 247.638 90.775C225.75 69.7125 193.538 50 150 50ZM150 100C136.739 100 124.021 105.268 114.645 114.645C105.268 124.021 100 136.739 100 150C100 163.261 105.268 175.979 114.645 185.355C124.021 194.732 136.739 200 150 200C163.261 200 175.979 194.732 185.355 185.355C194.732 175.979 200 163.261 200 150C200 136.739 194.732 124.021 185.355 114.645C175.979 105.268 163.261 100 150 100V100ZM150 175C156.63 175 162.989 172.366 167.678 167.678C172.366 162.989 175 156.63 175 150C175 143.37 172.366 137.011 167.678 132.322C162.989 127.634 156.63 125 150 125C143.37 125 137.011 127.634 132.322 132.322C127.634 137.011 125 143.37 125 150C125 156.63 127.634 162.989 132.322 167.678C137.011 172.366 143.37 175 150 175Z" />
</svg>
