<svg viewBox="0 0 300 300" fill="none" xmlns="http://www.w3.org/2000/svg">
<path fill-rule="evenodd" clip-rule="evenodd" d="M25 137.5C25.0019 119.529 29.3088 101.821 37.5599 85.8568C45.8111 69.8928 57.7665 56.1376 72.4253 45.7429C87.0841 35.3481 104.02 28.6161 121.814 26.1106C139.609 23.6051 157.745 25.3988 174.705 31.3417C191.664 37.2846 206.952 47.2037 219.291 60.2687C231.629 73.3337 240.659 89.1643 245.623 106.435C250.587 123.707 251.341 141.915 247.823 159.538C244.304 177.16 236.616 193.684 225.4 207.725L271.338 253.662C273.614 256.02 274.874 259.177 274.846 262.455C274.817 265.732 273.503 268.867 271.185 271.185C268.868 273.502 265.732 274.817 262.455 274.845C259.178 274.874 256.02 273.614 253.662 271.337L207.725 225.4C191.173 238.624 171.224 246.907 150.172 249.293C129.121 251.68 107.823 248.073 88.7312 238.889C69.6391 229.705 53.5285 215.316 42.2537 197.379C30.9789 179.442 24.9982 158.686 25 137.5ZM112.5 74.9996C115.815 74.9996 118.995 76.3165 121.339 78.6607C123.683 81.0049 125 84.1843 125 87.4996C125 90.8148 123.683 93.9942 121.339 96.3384C118.995 98.6826 115.815 99.9995 112.5 99.9995C109.185 99.9995 106.005 101.317 103.661 103.661C101.317 106.005 100 109.184 100 112.5C100 115.815 98.683 118.994 96.3388 121.338C93.9946 123.683 90.8152 125 87.5 125C84.1848 125 81.0054 123.683 78.6612 121.338C76.317 118.994 75 115.815 75 112.5C75 102.554 78.9509 93.0157 85.9835 85.9831C93.0161 78.9504 102.554 74.9996 112.5 74.9996Z"/>
</svg>
