<svg viewBox="0 0 300 300" fill="none" xmlns="http://www.w3.org/2000/svg">
<path fill-rule="evenodd" clip-rule="evenodd" d="M224.998 199.997C227.469 199.997 229.886 199.263 231.941 197.89C233.996 196.516 235.598 194.564 236.544 192.281C237.489 189.997 237.737 187.484 237.255 185.059C236.773 182.635 235.583 180.408 233.835 178.66L158.835 103.66C156.491 101.316 153.312 100 149.998 100C146.683 100 143.504 101.316 141.16 103.66L66.1601 178.66C64.4125 180.408 63.2224 182.635 62.7403 185.059C62.2582 187.484 62.5057 189.997 63.4516 192.281C64.3975 194.564 65.9992 196.516 68.0544 197.89C70.1095 199.263 72.5257 199.997 74.9976 199.997H224.998Z" />
</svg>
